<?xml version="1.0" standalone="no"?>
<!DOCTYPE svg PUBLIC "-//W3C//DTD SVG 20010904//EN"
 "http://www.w3.org/TR/2001/REC-SVG-20010904/DTD/svg10.dtd">
<svg version="1.0" xmlns="http://www.w3.org/2000/svg"
 width="500.000000pt" height="500.000000pt" viewBox="0 0 500.000000 500.000000"
 preserveAspectRatio="xMidYMid meet">
<metadata>
Created by potrace 1.14, written by Peter Selinger 2001-2017
</metadata>
<g transform="translate(0.000000,500.000000) scale(0.100000,-0.100000)"
fill="#000000" stroke="none">
<path d="M2285 4768 c-39 -9 -60 -22 -102 -63 -28 -29 -55 -65 -59 -79 -4 -15
-13 -26 -23 -26 -35 0 -143 -63 -194 -113 -73 -71 -135 -162 -200 -292 -79
-158 -118 -264 -284 -755 -114 -339 -243 -660 -265 -660 -4 0 -13 -11 -20 -24
l-11 -25 -453 4 c-344 3 -457 1 -466 -8 -7 -7 -30 -21 -51 -31 -79 -41 -141
-139 -139 -223 1 -60 26 -104 84 -148 21 -16 38 -36 38 -45 0 -15 47 -150 155
-445 20 -55 47 -131 61 -170 67 -183 110 -330 164 -555 94 -393 139 -496 284
-648 124 -130 337 -205 646 -228 332 -24 1453 -23 2000 2 47 2 158 5 246 7 89
3 165 7 170 9 9 6 44 14 103 23 56 9 153 45 207 76 146 83 218 221 298 564 48
207 75 297 161 529 40 111 87 242 105 291 33 95 98 336 104 389 2 17 7 59 11
94 6 54 11 64 34 76 57 30 101 102 101 165 0 85 -57 184 -127 220 -20 10 -111
33 -173 44 -14 3 -41 11 -60 19 -39 15 -49 16 -67 5 -7 -4 -88 -10 -180 -12
-93 -3 -202 -7 -243 -10 -221 -14 -1030 -28 -1014 -17 14 10 137 169 230 297
303 419 409 687 358 907 -14 60 -55 149 -81 177 -57 63 -103 104 -140 123 -41
22 -42 23 -42 74 1 59 -25 124 -66 168 -36 37 -120 76 -165 76 -19 0 -49 9
-67 20 -71 43 -378 162 -449 173 -16 3 -56 12 -89 20 -126 33 -250 42 -330 25z
m-166 -325 c20 -56 96 -124 190 -171 89 -45 312 -125 396 -141 28 -6 59 -12
70 -14 11 -3 38 -7 60 -11 22 -4 77 -19 123 -33 70 -23 86 -25 103 -15 14 9
24 10 33 3 40 -33 144 -13 231 45 l57 37 37 -19 c64 -34 146 -125 170 -189 87
-231 -86 -588 -564 -1173 l-50 -61 -75 -1 c-224 -5 -883 -3 -1065 3 -115 4
-289 10 -385 13 -96 3 -176 7 -178 8 -1 2 18 45 42 97 24 52 51 117 61 144 9
28 22 64 30 80 7 17 21 53 30 80 261 782 359 1025 481 1197 52 75 143 156 174
157 10 1 22 -14 29 -36z"/>
</g>
</svg>
